<?xml version="1.0" encoding="UTF-8" standalone="no"?> <!-- Created with Vectornator for iOS (http://vectornator.io/) --><!DOCTYPE svg PUBLIC "-//W3C//DTD SVG 1.1//EN" "http://www.w3.org/Graphics/SVG/1.1/DTD/svg11.dtd">
<svg height="100%" style="fill-rule:nonzero;clip-rule:evenodd;stroke-linecap:round;stroke-linejoin:round;" version="1.1" viewBox="0 0 512 512" width="100%" xml:space="preserve" xmlns="http://www.w3.org/2000/svg" xmlns:xlink="http://www.w3.org/1999/xlink">
<metadata>
</metadata>
<defs/>
<g>
<path d="M352.46 219.858L434.428 219.858C453.201 219.858 468.42 235.076 468.42 253.85L468.42 258.15C468.42 276.924 453.201 292.142 434.428 292.142L77.5721 292.142C58.7989 292.142 43.5802 276.924 43.5802 258.15L43.5802 253.85C43.5802 235.076 58.7989 219.858 77.5721 219.858L352.46 219.858Z" fill="#b4b4b4" opacity="1" stroke="#b4b4b4" stroke-linecap="round" stroke-linejoin="round" stroke-width="1"/>
<path d="M238 256C238 220.101 267.101 191 303 191C338.899 191 368 220.101 368 256C368 291.899 338.899 321 303 321C267.101 321 238 291.899 238 256Z" fill="#ffffff" opacity="1" stroke="#FF0000" stroke-linecap="round" stroke-linejoin="round" stroke-width="25.4431"/>
</g>
</svg>
